<svg width="60" height="60" viewBox="0 0 60 60" fill="none" xmlns="http://www.w3.org/2000/svg">
<path d="M53.3802 6.89872H50.1025V0.998718H43.5469V6.89872H17.3247V0.998718H10.7691V6.89872H7.49135C3.85301 6.89872 0.968569 9.55372 0.968569 12.7987L0.935791 54.0987C0.935791 55.6635 1.62646 57.1642 2.85587 58.2706C4.08527 59.3771 5.75271 59.9987 7.49135 59.9987H53.3802C56.9858 59.9987 59.9358 57.3437 59.9358 54.0987V12.7987C59.9358 9.55372 56.9858 6.89872 53.3802 6.89872ZM53.3802 54.0987H7.49135V24.5987H53.3802V54.0987ZM53.3802 18.6987H7.49135V12.7987H53.3802V18.6987ZM20.6025 36.3987H14.0469V30.4987H20.6025V36.3987ZM33.7136 36.3987H27.158V30.4987H33.7136V36.3987ZM46.8247 36.3987H40.2691V30.4987H46.8247V36.3987ZM20.6025 48.1987H14.0469V42.2987H20.6025V48.1987ZM33.7136 48.1987H27.158V42.2987H33.7136V48.1987ZM46.8247 48.1987H40.2691V42.2987H46.8247V48.1987Z" fill="black"/>
</svg>
