<svg width="16" height="17" viewBox="0 0 16 17" fill="none" xmlns="http://www.w3.org/2000/svg">
<path d="M4.66574 11.1665C4.00908 11.1673 3.37524 10.9257 2.88565 10.4881C2.39606 10.0505 2.08515 9.44759 2.01248 8.79497C1.93981 8.14234 2.11049 7.48585 2.49183 6.95126C2.87316 6.41668 3.43834 6.04159 4.07907 5.89786C3.89369 5.03325 4.05936 4.13041 4.53964 3.38796C5.01992 2.6455 5.77547 2.12424 6.64007 1.93886C7.50468 1.75347 8.40752 1.91914 9.14997 2.39942C9.89243 2.8797 10.4137 3.63525 10.5991 4.49986H10.6657C11.4924 4.49902 12.2898 4.80538 12.9033 5.35944C13.5168 5.9135 13.9025 6.67574 13.9855 7.49819C14.0686 8.32064 13.8431 9.14462 13.3529 9.81017C12.8626 10.4757 12.1425 10.9354 11.3324 11.0999M5.99907 13.1665L7.99907 15.1665M7.99907 15.1665L9.99907 13.1665M7.99907 15.1665V7.16652" stroke="#1F2A37" stroke-width="2" stroke-linecap="round" stroke-linejoin="round"/>
</svg>
