<svg width="41" height="43" viewBox="0 0 41 43" fill="none" xmlns="http://www.w3.org/2000/svg">
<path d="M5.25001 0.25C3.90182 0.25 2.60886 0.697766 1.65555 1.4948C0.702236 2.29183 0.166672 3.37283 0.166672 4.5V38.5C0.166672 39.6272 0.702236 40.7082 1.65555 41.5052C2.60886 42.3022 3.90182 42.75 5.25001 42.75H35.75C37.0982 42.75 38.3912 42.3022 39.3445 41.5052C40.2978 40.7082 40.8333 39.6272 40.8333 38.5V13L25.5833 0.25H5.25001ZM5.25001 4.5H23.0417V15.125H35.75V38.5H5.25001V4.5ZM10.3333 21.5V25.75H30.6667V21.5H10.3333ZM10.3333 30V34.25H23.0417V30H10.3333Z" fill="black"/>
</svg>
