
<svg width="26" height="23" viewBox="0 0 26 23" fill="none" xmlns="http://www.w3.org/2000/svg">
<path d="M23.1495 0H2.78604C1.24982 0 0 1.24982 0 2.78604V16.159C0 17.6952 1.24982 18.9451 2.78604 18.9451H9.3466C9.42669 18.9451 9.50282 18.9835 9.55039 19.048L11.944 22.2931C12.1839 22.6184 12.5532 22.806 12.9573 22.8078H12.9634C13.3652 22.8078 13.7338 22.6239 13.9754 22.3024L16.4233 19.0461C16.4709 18.9828 16.5466 18.945 16.6258 18.945H23.1495C24.6857 18.945 25.9355 17.6952 25.9355 16.159V2.78599C25.9355 1.24977 24.6857 0 23.1495 0V0ZM24.4158 16.159C24.4158 16.2787 24.3988 16.3943 24.3677 16.5041L16.5614 9.66117L24.4158 3.14296V16.159ZM23.1495 1.51966C23.3811 1.51966 23.5983 1.58247 23.7852 1.69153L13.7786 9.99575C13.31 10.3847 12.6298 10.3847 12.1612 9.99575L2.1528 1.69006C2.33921 1.58191 2.55546 1.51966 2.78604 1.51966H23.1495ZM1.56783 16.5041C1.53668 16.3943 1.51966 16.2786 1.51966 16.159V3.13941L9.37619 9.6593L1.56783 16.5041ZM15.2087 18.133L12.9651 21.1174L10.7734 18.146C10.4407 17.6947 9.90721 17.4254 9.34655 17.4254H2.82216L10.5604 10.6421L11.1907 11.1651C11.7062 11.593 12.3379 11.8068 12.9699 11.8068C13.6016 11.8068 14.2336 11.5928 14.749 11.1651L15.3771 10.6439L23.1132 17.4254H16.6258C16.0716 17.4254 15.5418 17.6899 15.2087 18.133V18.133Z" fill="white"/>
</svg>
